<svg viewBox="40.211 11.566 640 320" xmlns="http://www.w3.org/2000/svg"><defs><linearGradient id="a" x1="-88.5" y1="273.5" x2="843.5" y2="832" gradientUnits="userSpaceOnUse" gradientTransform="matrix(.07395 0 0 .07395 332.823 47.689)"><stop stop-color="#E54033"/><stop offset=".49" stop-color="#FECA1A"/><stop offset="1" stop-color="#AFD803"/></linearGradient><linearGradient id="b" x1="263632" y1="31154.5" x2="205286" y2="-28862.6" gradientUnits="userSpaceOnUse" gradientTransform="matrix(.07395 0 0 .07395 332.823 47.689)"><stop offset=".15" stop-color="#6CBF00"/><stop offset="1" stop-color="#AFD803"/></linearGradient><linearGradient id="c" x1="72.43" y1="766.73" x2="656.43" y2="624.73" gradientUnits="userSpaceOnUse" gradientTransform="matrix(.07395 0 0 .07395 332.823 47.689)"><stop offset=".21" stop-color="#E54033"/><stop offset=".84" stop-color="#FECA1A"/></linearGradient><linearGradient id="d" x1="532.54" y1="727.34" x2="712.74" y2="728.69" gradientUnits="userSpaceOnUse" gradientTransform="matrix(.07395 0 0 .07395 332.823 47.689)"><stop stop-color="#FECA1A"/><stop offset=".4" stop-color="#FECA1A"/><stop offset="1" stop-color="#AFD803"/></linearGradient><linearGradient id="e" x1="124.65" y1="770.37" x2="494.1" y2="270.2" gradientUnits="userSpaceOnUse" gradientTransform="matrix(.07395 0 0 .07395 332.823 47.689)"><stop offset=".16" stop-color="#E54033"/><stop offset=".84" stop-color="#FECA1A"/></linearGradient><linearGradient id="f" x1="70.85" y1="273.39" x2="54.49" y2="596.45" gradientUnits="userSpaceOnUse" gradientTransform="matrix(.07395 0 0 .07395 332.823 47.689)"><stop stop-color="#FECA1A"/><stop offset=".76" stop-color="#E54033"/></linearGradient><linearGradient id="g" x1="251.58" y1="189.5" x2="152.91" y2="564.17" gradientUnits="userSpaceOnUse" gradientTransform="matrix(.07395 0 0 .07395 332.823 47.689)"><stop offset=".16" stop-color="#FECA1A"/><stop offset="1" stop-color="#E54033"/></linearGradient><linearGradient id="h" x1="289.8" y1="10.12" x2="655.13" y2="144.78" gradientUnits="userSpaceOnUse" gradientTransform="matrix(.07395 0 0 .07395 332.823 47.689)"><stop offset=".15" stop-color="#6CBF00"/><stop offset="1" stop-color="#AFD803"/></linearGradient><linearGradient id="i" x1="263631" y1="31154.2" x2="205285" y2="-28862.9" gradientUnits="userSpaceOnUse" gradientTransform="matrix(.07395 0 0 .07395 332.823 47.689)"><stop offset=".15" stop-color="#6CBF00"/><stop offset="1" stop-color="#AFD803"/></linearGradient></defs><path d="M360.093 89.799c35.542 0 64.351 5.273 64.351 11.771 0 6.498-28.809 11.772-64.351 11.772s-64.351-5.274-64.351-11.772 28.809-11.771 64.351-11.771Zm0-5.635c-39.875 0-72.199 7.793-72.199 17.406a72.201 72.201 0 0 0 123.251 51.052 72.195 72.195 0 0 0 21.147-51.052c0-9.614-32.325-17.406-72.199-17.406Z" fill="#7ac400"/><path fill-rule="evenodd" clip-rule="evenodd" d="m357.798 62.573.001-.002c2.684 1.377 5.62 1.849 8.43 1.841 1.633 1.499 2.991 3.261 4.268 5.07a20.357 20.357 0 0 1 1.428 2.366c.976 1.879 1.694 3.868 2.42 5.88.213.59.427 1.182.648 1.774.069.253.142.507.217.761l.004-.001c1.122 3.847 2.76 7.957 4.954 11.35l-.002.001a25.199 25.199 0 0 0 2.432 3.157c.176.19.356.378.536.567.84.88 1.687 1.767 2.167 2.877.598 1.383.552 2.973.192 4.437-1.695 6.898-8.338 8.71-14.686 8.877l.003-.008c-2.38.048-4.744-.13-6.84-.345 0 0-10.109-1.046-18.678-7.311l-.277-.205c-1-.745-1.954-1.551-2.857-2.411-2.402-2.293-4.539-4.893-6.173-7.747l.033-.033a26.58 26.58 0 0 1-.556-1.055c-1.581-3.164-2.545-6.609-2.589-10.27-.074-6.143 2.028-12.434 6.022-16.995l-.004-.011c2.163-2.37 4.866-4.231 8.067-5.291a18.529 18.529 0 0 1 6.228-.951 15.447 15.447 0 0 0 4.612 3.678Zm-4.924 40.194a18.43 18.43 0 0 0 4.094-2.113 19.374 19.374 0 0 1-4.094 2.113Z" fill="url(#a)"/><path fill-rule="evenodd" clip-rule="evenodd" d="m378.781 57.57.003-.001.087-.056c-11.271-19.226-26.008-4.089-26.008-4.089l.021.037-.003.001c8.475 14.858 24.58 4.955 25.9 4.108Z" fill="url(#b)"/><path d="M364.809 90.683c-3.106 7.425-9.069 12.341-16.293 13.085-.155.021-2.133.177-3.224.096 8.569 6.265 18.678 7.311 18.678 7.311 2.165.222 4.614.404 7.073.339.866-2.26 1.353-4.848 1.213-7.784-.324-6.82 3.631-10.322 7.912-12.118-2.194-3.393-3.832-7.503-4.954-11.35-3.344.889-7.59 3.687-10.405 10.421Z" fill="url(#c)"/><path d="M372.121 103.682c.141 2.936-.448 5.585-1.314 7.846 6.348-.167 12.991-1.979 14.686-8.877.36-1.464.406-3.054-.192-4.437-.582-1.347-1.706-2.366-2.703-3.444a25.274 25.274 0 0 1-2.528-3.306c-4.278 1.797-8.274 5.398-7.949 12.218Z" fill="url(#d)"/><path d="M374.993 79.502c-.975-2.61-1.805-5.223-3.068-7.654a20.357 20.357 0 0 0-1.428-2.366c-1.277-1.809-2.635-3.571-4.268-5.07-2.81.008-5.746-.464-8.43-1.841-2.718 3.856-5.828 10.396-2.981 17.862 4.203 11.025-4.327 18.56-9.803 23.226l.277.205c1.027.081 2.058.065 3.082-.044 7.224-.745 13.532-5.78 16.638-13.203 2.815-6.735 6.91-9.294 10.249-10.184a37.37 37.37 0 0 1-.268-.931Z" fill="url(#e)"/><path d="M339.189 64.819c-4.185 4.585-6.392 11.032-6.316 17.324.044 3.661 1.008 7.106 2.589 10.27.237.475.488.943.754 1.405 8.798-8.832 5.62-21.992 2.973-28.999Z" fill="url(#f)"/><path d="M354.966 80.433c-2.847-7.469.193-13.966 2.908-17.821a15.44 15.44 0 0 1-4.688-3.717 18.529 18.529 0 0 0-6.228.951c-3.201 1.06-5.904 2.921-8.067 5.291 2.588 6.852 5.699 19.725-2.906 28.364 1.634 2.854 3.771 5.454 6.173 7.747a31.046 31.046 0 0 0 3.005 2.52c5.475-4.663 14.007-12.31 9.803-23.335Z" fill="url(#g)"/><path d="M365.581 54.649c5.958 2.351 10.131 2.987 13.156 2.896l.087-.056c-11.271-19.226-26.008-4.089-26.008-4.089l.021.037c3.179-.563 7.799-.738 12.744 1.212Z" fill="url(#h)"/><path d="M365.655 54.516c-4.942-1.947-9.588-1.873-12.821-1.079 8.476 14.859 24.582 4.955 25.9 4.108-3.027.091-7.121-.678-13.079-3.029Z" fill="url(#i)"/><path d="M192.58 243.504h-12.26v-13.89c0-1.713.067-3.477.2-5.29.127-1.813.267-3.333.42-4.56l.28-2.36h-.23l-7.11 26.1h-9.69l-7.17-26.04h-.22c.04.333.143 1.107.31 2.32.167 1.213.323 2.727.47 4.54.153 1.813.23 3.577.23 5.29v13.89h-11.37v-38.53h17.47l5.83 22.23h.22l5.77-22.23h16.85v38.53Zm46.423 0h-13.1l-1.62-5.43h-13.5l-1.62 5.43h-12.66l14.06-38.53h14.39l14.05 38.53Zm-21.56-27.78-4.08 13.72h8.34l-4.03-13.72h-.23Zm64.567 27.78h-10.8l-16.19-18.7v18.7h-11.37v-38.53h10.81l16.19 18.99v-18.99h11.36v38.53Zm27.667-39.2c3.694 0 7.017.56 9.97 1.68 2.947 1.12 5.29 2.773 7.03 4.96 1.734 2.18 2.6 4.84 2.6 7.98h-11.82c0-1.607-.706-2.907-2.12-3.9-1.42-.987-3.14-1.48-5.16-1.48-2.906 0-5.106.773-6.6 2.32-1.493 1.553-2.24 3.747-2.24 6.58v3.59c0 2.833.747 5.027 2.24 6.58 1.494 1.547 3.694 2.32 6.6 2.32 2.02 0 3.74-.477 5.16-1.43 1.414-.947 2.12-2.167 2.12-3.66h-8.73v-7.84h20.55v21.5h-6.38l-1.24-3.81c-3.506 2.987-8.096 4.48-13.77 4.48-6.386 0-11.183-1.67-14.39-5.01-3.213-3.34-4.82-8.313-4.82-14.92 0-6.533 1.82-11.49 5.46-14.87 3.64-3.38 8.82-5.07 15.54-5.07Zm46.428 0c6.64 0 11.773 1.7 15.4 5.1 3.62 3.393 5.43 8.34 5.43 14.84 0 6.493-1.81 11.44-5.43 14.84-3.627 3.393-8.76 5.09-15.4 5.09-6.647 0-11.774-1.69-15.38-5.07-3.6-3.373-5.4-8.327-5.4-14.86 0-6.533 1.8-11.49 5.4-14.87 3.606-3.38 8.733-5.07 15.38-5.07Zm0 9.24c-2.654 0-4.67.803-6.05 2.41-1.38 1.607-2.07 3.77-2.07 6.49v3.59c0 2.727.69 4.89 2.07 6.49 1.38 1.607 3.396 2.41 6.05 2.41 2.646 0 4.67-.803 6.07-2.41 1.4-1.6 2.1-3.763 2.1-6.49v-3.59c0-2.72-.7-4.883-2.1-6.49-1.4-1.607-3.424-2.41-6.07-2.41Zm39.807 18.98h-14.28v-8.84h14.28v8.84Zm31.981-27.55c1.94 0 3.723.403 5.35 1.21 1.627.8 2.913 1.927 3.86 3.38.953 1.46 1.43 3.087 1.43 4.88 0 4.74-2.147 7.727-6.44 8.96v.22c4.893 1.12 7.34 4.33 7.34 9.63 0 2.02-.497 3.803-1.49 5.35-.987 1.547-2.34 2.75-4.06 3.61-1.713.86-3.597 1.29-5.65 1.29h-25.99v-38.53h25.65Zm-13.27 8.46v6.55h8.51c.82 0 1.503-.29 2.05-.87.54-.58.81-1.297.81-2.15v-.56c0-.827-.28-1.527-.84-2.1-.56-.58-1.233-.87-2.02-.87h-8.51Zm0 14.5v6.61h9.41c.82 0 1.5-.29 2.04-.87.54-.58.81-1.297.81-2.15v-.56c0-.86-.27-1.58-.81-2.16-.54-.58-1.22-.87-2.04-.87h-9.41Zm50.346-23.63c6.64 0 11.774 1.7 15.4 5.1 3.62 3.393 5.43 8.34 5.43 14.84 0 6.493-1.81 11.44-5.43 14.84-3.626 3.393-8.76 5.09-15.4 5.09-6.646 0-11.773-1.69-15.38-5.07-3.6-3.373-5.4-8.327-5.4-14.86 0-6.533 1.8-11.49 5.4-14.87 3.607-3.38 8.734-5.07 15.38-5.07Zm0 9.24c-2.653 0-4.67.803-6.05 2.41-1.38 1.607-2.07 3.77-2.07 6.49v3.59c0 2.727.69 4.89 2.07 6.49 1.38 1.607 3.397 2.41 6.05 2.41 2.647 0 4.67-.803 6.07-2.41 1.4-1.6 2.1-3.763 2.1-6.49v-3.59c0-2.72-.7-4.883-2.1-6.49-1.4-1.607-3.423-2.41-6.07-2.41Zm69.096 29.96h-13.6l-4.99-23.46h-.22l-4.99 23.46h-13.6l-9.02-38.53h12.88l4.42 21.84h.23l4.37-21.84h12.2l4.65 21.84h.23l4.14-21.84h12.32l-9.02 38.53Zm13.442 0v-38.53h12.38v28.67h19.77v9.86h-32.15Z" style="white-space:pre" fill="#fec71b"/><text x="436.454" y="236.535" style="white-space:pre" fill="#333" font-family="Roboto Slab" font-size="28"> </text><path d="M196.471 274.832v-11.5a2.31 2.31 0 0 1 .67-1.63c.207-.2.453-.363.74-.49.28-.12.577-.18.89-.18h8.74c.313 0 .61.06.89.18.28.127.523.29.73.49.213.207.38.45.5.73.12.287.18.587.18.9v2.08h-2.3v-2.08h-8.74v11.5h8.74v-2.07h2.3v2.07c0 .313-.06.61-.18.89s-.287.527-.5.74a2.303 2.303 0 0 1-1.62.67h-8.74c-.313 0-.61-.06-.89-.18a2.271 2.271 0 0 1-.74-.49 2.418 2.418 0 0 1-.49-.74c-.12-.28-.18-.577-.18-.89Zm17.022 2.3v-16.1h11.73v2.3h-9.43v4.6h8.05v2.3h-8.05v4.6h9.43v2.3h-11.73Zm13.924-16.1h2.77l4.3 6.03 4.33-6.03h2.78l-5.7 7.98 5.83 8.12h-2.79l-4.45-6.19-4.41 6.19h-2.78l5.82-8.12-5.7-7.98Zm23.725-.46h2.2v16.56h-2.2v-16.56Zm5.996 4.6h2.22v11.96h-2.22v-11.96Zm-.11-2.3v-2.3h2.44v2.3h-2.44Zm17.141 14.26h-3.11l-5.71-5.11v5.11h-2.2v-16.56h2.2v9.32l5.25-4.72h3.11l-6.43 5.77 6.89 6.19Zm11.722-9.75v4.9h-7.92v2.64h7.92v2.21h-7.92c-.3 0-.584-.057-.85-.17-.267-.12-.5-.28-.7-.48a2.05 2.05 0 0 1-.47-.7 2.071 2.071 0 0 1-.18-.86v-7.54c0-.307.06-.593.18-.86a2.05 2.05 0 0 1 .47-.7c.2-.2.433-.36.7-.48.266-.113.55-.17.85-.17h5.71c.306 0 .593.057.86.17.273.12.506.28.7.48.2.193.36.427.48.7.113.267.17.553.17.86Zm-2.21 0h-5.71v2.69h5.71v-2.69Zm17.846-6.35h2.3l6.21 16.1h-2.3l-1.43-3.71h-7.27l-1.42 3.71h-2.3l6.21-16.1Zm1.15 2.99-2.76 7.1h5.5l-2.74-7.1Zm12.424 13.11h-2.3v-16.1h8.81c2.607 0 3.91 1.303 3.91 3.91v2.3c0 2.613-1.303 3.92-3.91 3.92h-6.51v5.97Zm0-13.8v5.52h6.39c.614 0 1.054-.133 1.32-.4.274-.273.41-.717.41-1.33v-2.06c0-.613-.136-1.057-.41-1.33-.266-.267-.706-.4-1.32-.4h-6.39Zm13.637-2.3h2.3v16.1h-2.3v-16.1Zm21.469 1.75h-3.93v2.39h3.93v2.21h-3.93v9.75h-2.21v-9.75h-2.92v-2.21h2.92v-2.39a2.132 2.132 0 0 1 .65-1.56c.2-.207.434-.367.7-.48.274-.113.56-.17.86-.17h3.93v2.21Zm13.345 4.6v7.54c0 .307-.06.593-.18.86a2.05 2.05 0 0 1-.47.7c-.2.2-.433.36-.7.48-.267.113-.553.17-.86.17h-5.94c-.3 0-.583-.057-.85-.17-.267-.12-.5-.28-.7-.48a2.05 2.05 0 0 1-.47-.7 2.071 2.071 0 0 1-.18-.86v-7.54c0-.307.06-.593.18-.86a2.05 2.05 0 0 1 .47-.7c.2-.2.433-.36.7-.48.267-.113.55-.17.85-.17h5.94c.307 0 .593.057.86.17.267.12.5.28.7.48.2.193.357.427.47.7.12.267.18.553.18.86Zm-2.21 0h-5.94v7.54h5.94v-7.54Zm12.649 0h-4.56v9.75h-2.2v-11.96h2.2v2.11c.02-.293.09-.567.21-.82.113-.26.27-.487.47-.68.2-.187.43-.337.69-.45.267-.107.55-.16.85-.16h2.34c.307 0 .593.057.86.17.267.12.5.28.7.48.207.193.367.427.48.7.113.267.17.553.17.86v2.02h-2.21v-2.02Zm21.08 9.75h-.68l-6.01-11.8v11.8h-2.3v-16.1h2.51l6.13 12.12 6.15-12.12h2.5v16.1h-2.29v-11.8l-6.01 11.8Zm12.217-2.21v-3.01c0-.307.06-.593.18-.86a2.2 2.2 0 0 1 .47-.7c.2-.207.434-.367.7-.48.267-.113.55-.17.85-.17h5.71v-2.32h-7.22v-2.21h7.22c.307 0 .594.057.86.17.274.12.507.28.7.48.2.193.36.427.48.7.114.267.17.553.17.86v9.75h-2.21v-2.02a2.134 2.134 0 0 1-.23.78c-.126.253-.29.47-.49.65a2.01 2.01 0 0 1-.67.43c-.26.107-.53.16-.81.16h-3.51c-.3 0-.583-.057-.85-.17-.266-.12-.5-.28-.7-.48a2.064 2.064 0 0 1-.47-.7 2.071 2.071 0 0 1-.18-.86Zm2.2-3.01v3.01h5.71v-3.01h-5.71Zm22.18-4.53v9.75h-2.21v-9.75h-6.17v9.75h-2.2v-11.96h2.2v2.11c.02-.293.09-.567.21-.82.113-.26.27-.487.47-.68.2-.187.43-.337.69-.45.267-.107.55-.16.85-.16h3.95a2.181 2.181 0 0 1 1.57.65 2.181 2.181 0 0 1 .64 1.56Zm3.682 7.08v-7.08c0-.307.06-.593.18-.86.114-.273.27-.507.47-.7.2-.2.434-.36.7-.48.267-.113.55-.17.85-.17h3.97c.294 0 .57.053.83.16.26.113.49.263.69.45.2.193.36.42.48.68.127.253.194.527.2.82v-2.11h2.21v14.58c0 .307-.056.593-.17.86-.12.273-.276.507-.47.7a2.178 2.178 0 0 1-1.57.65h-6.99v-2.21h6.99v-3.08h-6.17c-.3 0-.583-.057-.85-.17-.266-.12-.5-.28-.7-.48a2.064 2.064 0 0 1-.47-.7 2.071 2.071 0 0 1-.18-.86Zm2.2 0h6.17v-7.08h-6.17v7.08Zm22.413-7.08v7.54c0 .307-.06.593-.18.86-.114.273-.27.507-.47.7-.2.2-.434.36-.7.48-.267.113-.554.17-.86.17h-5.94c-.3 0-.584-.057-.85-.17-.267-.12-.5-.28-.7-.48a2.05 2.05 0 0 1-.47-.7 2.071 2.071 0 0 1-.18-.86v-7.54c0-.307.06-.593.18-.86a2.05 2.05 0 0 1 .47-.7c.2-.2.433-.36.7-.48.266-.113.55-.17.85-.17h5.94c.306 0 .593.057.86.17.266.12.5.28.7.48.2.193.356.427.47.7.12.267.18.553.18.86Zm-2.21 0h-5.94v7.54h5.94v-7.54Zm15.315 7.45h5.88c1.073 0 1.896-.29 2.47-.87.58-.573.87-1.397.87-2.47v-4.83c0-.52-.077-.987-.23-1.4a2.789 2.789 0 0 0-.65-1.05 2.995 2.995 0 0 0-1.05-.66 4.199 4.199 0 0 0-1.41-.22h-5.88v11.5Zm5.88 2.3h-8.18v-16.1h8.18c.86 0 1.636.13 2.33.39a5.058 5.058 0 0 1 1.78 1.14c.486.487.863 1.08 1.13 1.78.266.693.4 1.467.4 2.32v4.83c0 .853-.134 1.63-.4 2.33a5.126 5.126 0 0 1-1.13 1.78 5.121 5.121 0 0 1-1.78 1.13c-.694.267-1.47.4-2.33.4Zm9.327 0v-16.1h11.73v2.3h-9.43v4.6h8.05v2.3h-8.05v4.6h9.43v2.3h-11.73Zm13.924-16.1h2.77l4.3 6.03 4.33-6.03h2.78l-5.7 7.98 5.83 8.12h-2.79l-4.45-6.19-4.41 6.19h-2.78l5.82-8.12-5.7-7.98Z" style="white-space:pre" fill="#7ac400"/></svg>